<svg width="51" height="95" viewBox="0 0 51 95" fill="none" xmlns="http://www.w3.org/2000/svg">
<g clip-path="url(#clip0_548_8493)">
<path d="M1.67969 4.89049C3.86831 5.49759 6.00603 6.20588 8.14376 6.96476C9.21262 7.3189 10.2306 7.72364 11.2994 8.12838C11.8084 8.33074 12.3174 8.53311 12.8264 8.73548C12.521 8.5837 13.1318 8.83667 13.1827 8.88726C13.4372 8.98844 13.7426 9.14022 13.9971 9.2414C18.1198 11.0627 22.039 13.1876 25.7545 15.7172C26.2126 16.0207 26.6707 16.3243 27.1288 16.6784C27.3324 16.8302 27.536 16.982 27.7396 17.1338C27.8414 17.2349 27.9941 17.2855 28.0959 17.3867C28.1468 17.4373 28.6048 17.7409 28.4012 17.5891C28.1977 17.4373 28.503 17.6397 28.503 17.6903C28.6048 17.7915 28.7066 17.842 28.8084 17.9432C29.012 18.095 29.1647 18.2468 29.3683 18.3986C29.7755 18.7527 30.1827 19.1068 30.6408 19.461C32.2186 20.827 33.6947 22.2436 35.1198 23.7613C35.8324 24.5202 36.4941 25.2791 37.1048 26.038C37.2575 26.2403 37.4102 26.3921 37.5629 26.5945C37.6138 26.6957 38.021 27.151 37.7665 26.8474C38.0719 27.2522 38.4282 27.7075 38.7336 28.1628C39.9551 29.8324 41.024 31.6031 41.9911 33.3738C42.4491 34.2845 42.9072 35.1951 43.3144 36.1058C43.4162 36.3081 43.518 36.5611 43.6198 36.7635C43.4162 36.3081 43.7216 37.067 43.7725 37.1682C43.9761 37.6741 44.1797 38.18 44.3324 38.686C44.9941 40.6085 45.5539 42.6321 45.9102 44.6558C45.9611 44.9088 46.012 45.1112 46.012 45.3641C46.012 45.5159 46.0629 45.6171 46.0629 45.7688C46.0629 45.8194 46.1138 46.2748 46.1138 45.9712C46.0629 45.7183 46.1138 46.0218 46.1138 46.0724C46.1138 46.2242 46.1647 46.3254 46.1647 46.4771C46.2156 46.7301 46.2156 47.0336 46.2665 47.2866C46.3683 48.349 46.4192 49.4115 46.4192 50.4233C46.4192 51.4352 46.3683 52.447 46.2665 53.4588C46.2156 53.9648 46.1647 54.4707 46.1138 54.9766C46.1647 54.5213 46.0629 55.1284 46.0629 55.2802C46.012 55.5331 45.9611 55.8367 45.9102 56.0896C45.5539 58.1133 44.9941 60.0864 44.2815 62.0595C44.1797 62.2619 44.1288 62.5148 44.027 62.7172C43.9761 62.8184 43.7216 63.3749 43.9252 63.0207C43.7216 63.5267 43.4671 64.0326 43.2635 64.4879C42.8054 65.3986 42.2965 66.3092 41.7875 67.1693C41.2276 68.0799 40.6168 68.9906 40.006 69.8507C39.9551 69.9518 39.9042 70.0024 39.8024 70.1036C40.0569 69.8001 39.8024 70.1036 39.7515 70.1542C39.5988 70.3566 39.4462 70.5589 39.2935 70.7107C38.9372 71.1155 38.5809 71.5708 38.2246 71.9755C36.8503 73.5439 35.3234 75.011 33.7456 76.377C33.3893 76.6806 33.033 76.9841 32.6258 77.2877C32.4222 77.4395 32.2695 77.5912 32.0659 77.743C31.9641 77.8442 31.8623 77.8948 31.7605 77.996C31.5569 78.1478 31.9641 77.8442 31.6587 78.0972C30.8444 78.7043 29.9791 79.3114 29.1138 79.9185C27.3833 81.0821 25.5509 82.1951 23.7186 83.207C21.8863 84.2188 20.0539 85.1295 18.1198 85.9895C17.6617 86.1919 17.1527 86.3942 16.6947 86.6472C16.4911 86.7484 16.2366 86.8496 16.033 86.9508C15.9312 87.0014 15.7785 87.052 15.6258 87.1025C15.524 87.1531 15.1168 87.3049 15.524 87.1531C14.5569 87.5579 13.5899 87.9626 12.6228 88.3167C11.6557 88.6709 10.6887 89.025 9.7216 89.3792C8.60184 89.7839 7.73657 90.9475 8.14376 92.1618C8.50005 93.2748 9.7725 94.1854 10.9432 93.7301C19.1378 90.7452 27.2815 87.1025 34.2545 81.7904C37.9192 79.0078 41.2276 75.8205 44.027 72.0767C46.6228 68.5859 48.5569 64.5891 49.7276 60.3899C52.1707 51.6375 51.1018 42.4804 47.539 34.2339C44.1288 26.3921 38.3264 19.5622 31.5569 14.3512C23.9731 8.48252 15.2695 4.43516 6.20963 1.50082C5.08987 1.14668 4.021 0.792531 2.90124 0.488979C1.73058 0.185427 0.356333 0.944308 0.0509433 2.10792C-0.203548 3.32213 0.407231 4.53634 1.67969 4.89049Z" fill="#2299e9"/>
<path d="M30.0809 66.1069C24.3294 72.3297 18.5779 78.5526 12.8773 84.7754C11.2485 86.5461 9.6198 88.3168 7.99106 90.0875C6.8204 91.3523 7.27849 93.4266 9.00903 93.8819C11.2994 94.5396 13.6408 94.5396 15.9821 94.3373C18.2216 94.1855 20.512 93.9831 22.7515 93.7808C27.3833 93.376 31.9641 92.9207 36.5959 92.3642C37.7665 92.2124 38.9372 91.4029 38.8863 90.0875C38.8354 88.9745 37.8683 87.6591 36.5959 87.8109C32.0659 88.3168 27.536 88.8227 23.006 89.2275C20.7665 89.4298 18.4761 89.6322 16.2366 89.784C15.2186 89.8346 14.1497 89.9358 13.1318 89.8852C12.8773 89.8852 12.5719 89.8852 12.3174 89.8346C12.2156 89.8346 11.4521 89.7334 11.8593 89.784C11.2994 89.7334 10.7905 89.5816 10.2306 89.4298C10.5869 90.6946 10.8923 91.9594 11.2485 93.2242C17 87.0014 22.7515 80.7786 28.4521 74.5558C30.0809 72.7851 31.7096 71.0143 33.3384 69.2436C34.1527 68.3836 34.2545 66.8658 33.3384 66.0057C32.4222 65.2974 30.9462 65.1963 30.0809 66.1069Z" fill="#2299e9"/>
</g>
<defs>
<clipPath id="clip0_548_8493">
<rect width="51" height="94" fill="white" transform="translate(0 0.438477)"/>
</clipPath>
</defs>
</svg>