<svg width="51" height="95" viewBox="0 0 51 95" fill="none" xmlns="http://www.w3.org/2000/svg">
<g clip-path="url(#clip0_548_8501)">
<path d="M49.3203 4.89049C47.1317 5.49759 44.994 6.20588 42.8562 6.96476C41.7874 7.3189 40.7694 7.72364 39.7006 8.12838C39.1916 8.33074 38.6826 8.53311 38.1736 8.73548C38.479 8.5837 37.8682 8.83667 37.8173 8.88726C37.5628 8.98844 37.2574 9.14022 37.0029 9.2414C32.8802 11.0627 28.961 13.1876 25.2455 15.7172C24.7874 16.0207 24.3293 16.3243 23.8712 16.6784C23.6676 16.8302 23.464 16.982 23.2604 17.1338C23.1586 17.2349 23.0059 17.2855 22.9041 17.3867C22.8532 17.4373 22.3952 17.7409 22.5988 17.5891C22.8024 17.4373 22.497 17.6397 22.497 17.6903C22.3952 17.7915 22.2934 17.842 22.1916 17.9432C21.988 18.095 21.8353 18.2468 21.6317 18.3986C21.2245 18.7527 20.8173 19.1068 20.3592 19.461C18.7814 20.827 17.3053 22.2436 15.8802 23.7613C15.1676 24.5202 14.5059 25.2791 13.8952 26.038C13.7425 26.2403 13.5898 26.3921 13.4371 26.5945C13.3862 26.6957 12.979 27.151 13.2335 26.8474C12.9281 27.2522 12.5718 27.7075 12.2664 28.1628C11.0449 29.8324 9.97601 31.6031 9.00894 33.3738C8.55086 34.2845 8.09277 35.1951 7.68559 36.1058C7.58379 36.3081 7.48199 36.5611 7.3802 36.7635C7.58379 36.3081 7.2784 37.067 7.2275 37.1682C7.02391 37.6741 6.82032 38.18 6.66763 38.686C6.00595 40.6085 5.44606 42.6321 5.08978 44.6558C5.03888 44.9088 4.98798 45.1112 4.98798 45.3641C4.98798 45.5159 4.93708 45.6171 4.93708 45.7688C4.93708 45.8194 4.88619 46.2748 4.88619 45.9712C4.93708 45.7183 4.88619 46.0218 4.88619 46.0724C4.88619 46.2242 4.83529 46.3254 4.83529 46.4771C4.78439 46.7301 4.78439 47.0336 4.73349 47.2866C4.63169 48.349 4.5808 49.4115 4.5808 50.4233C4.5808 51.4352 4.63169 52.447 4.73349 53.4588C4.78439 53.9648 4.83529 54.4707 4.88619 54.9766C4.83529 54.5213 4.93708 55.1284 4.93708 55.2802C4.98798 55.5331 5.03888 55.8367 5.08978 56.0896C5.44606 58.1133 6.00594 60.0864 6.71852 62.0595C6.82032 62.2619 6.87121 62.5148 6.97301 62.7172C7.02391 62.8184 7.2784 63.3749 7.07481 63.0207C7.2784 63.5266 7.53289 64.0326 7.73648 64.4879C8.19457 65.3986 8.70355 66.3092 9.21254 67.1693C9.77242 68.0799 10.3832 68.9906 10.994 69.8506C11.0449 69.9518 11.0958 70.0024 11.1976 70.1036C10.9431 69.8001 11.1976 70.1036 11.2485 70.1542C11.4012 70.3566 11.5539 70.5589 11.7065 70.7107C12.0628 71.1155 12.4191 71.5708 12.7754 71.9755C14.1497 73.5439 15.6766 75.011 17.2544 76.377C17.6107 76.6806 17.967 76.9841 18.3742 77.2877C18.5778 77.4395 18.7305 77.5912 18.9341 77.743C19.0359 77.8442 19.1377 77.8948 19.2395 77.996C19.4431 78.1478 19.0359 77.8442 19.3413 78.0972C20.1556 78.7043 21.0209 79.3114 21.8862 79.9185C23.6167 81.0821 25.4491 82.1951 27.2814 83.207C29.1137 84.2188 30.9461 85.1295 32.8802 85.9895C33.3383 86.1919 33.8473 86.3942 34.3053 86.6472C34.5089 86.7484 34.7634 86.8496 34.967 86.9508C35.0688 87.0014 35.2215 87.0519 35.3742 87.1025C35.476 87.1531 35.8832 87.3049 35.476 87.1531C36.4431 87.5579 37.4101 87.9626 38.3772 88.3167C39.3443 88.6709 40.3113 89.025 41.2784 89.3792C42.3982 89.7839 43.2634 90.9475 42.8562 92.1617C42.5 93.2748 41.2275 94.1854 40.0568 93.7301C31.8622 90.7452 23.7185 87.1025 16.7455 81.7904C13.0808 79.0078 9.77241 75.8205 6.97301 72.0767C4.3772 68.5859 2.44307 64.5891 1.27242 60.3899C-1.1707 51.6375 -0.101837 42.4804 3.46104 34.2339C6.87122 26.3921 12.6736 19.5622 19.4431 14.3512C27.0269 8.48252 35.7305 4.43516 44.7904 1.50082C45.9101 1.14668 46.979 0.792531 48.0988 0.488979C49.2694 0.185427 50.6437 0.944307 50.9491 2.10792C51.2035 3.32213 50.5928 4.53634 49.3203 4.89049Z" fill="#2299e9"/>
<path d="M20.919 66.1069C26.6705 72.3297 32.422 78.5526 38.1226 84.7754C39.7513 86.5461 41.3801 88.3168 43.0088 90.0875C44.1795 91.3523 43.7214 93.4266 41.9909 93.8819C39.7004 94.5396 37.3591 94.5396 35.0178 94.3373C32.7783 94.1855 30.4879 93.9831 28.2483 93.7808C23.6166 93.376 19.0358 92.9207 14.404 92.3642C13.2334 92.2124 12.0627 91.4029 12.1136 90.0875C12.1645 88.9745 13.1316 87.6591 14.404 87.8109C18.934 88.3168 23.4639 88.8227 27.9938 89.2275C30.2334 89.4298 32.5238 89.6322 34.7633 89.784C35.7813 89.8346 36.8501 89.9358 37.8681 89.8852C38.1226 89.8852 38.428 89.8852 38.6825 89.8346C38.7843 89.8346 39.5477 89.7334 39.1406 89.784C39.7004 89.7334 40.2094 89.5816 40.7693 89.4298C40.413 90.6946 40.1076 91.9594 39.7513 93.2242C33.9998 87.0014 28.2483 80.7786 22.5477 74.5558C20.919 72.7851 19.2903 71.0143 17.6615 69.2436C16.8471 68.3836 16.7453 66.8658 17.6615 66.0057C18.5777 65.2974 20.0537 65.1963 20.919 66.1069Z" fill="#2299e9"/>
</g>
<defs>
<clipPath id="clip0_548_8501">
<rect width="51" height="94" fill="white" transform="matrix(-1 0 0 1 51 0.438477)"/>
</clipPath>
</defs>
</svg>