<svg width="446" height="241" viewBox="0 0 446 241" fill="none" xmlns="http://www.w3.org/2000/svg">
<g filter="url(#filter0_d)">
<path d="M27.752 125.872C27.752 126.928 27.496 128.816 26.984 131.536C26.472 134.224 26.008 135.968 25.592 136.768C25.08 136.64 24.408 136.384 23.576 136H1.352C0.616 135.04 0.248 134.032 0.248 132.976C1.336 132.976 2.136 132.784 2.648 132.4C3.16 132.016 3.416 131.376 3.416 130.48V107.968C3.416 107.104 3.16 106.48 2.648 106.096C2.168 105.712 1.384 105.52 0.296 105.52C0.296 104.464 0.664 103.456 1.4 102.496H20.024C20.568 102.24 21.192 102.048 21.896 101.92C22.632 101.76 23.304 101.68 23.912 101.68C24.392 102.608 24.904 103.888 25.448 105.52C26.024 107.152 26.312 108.336 26.312 109.072C25.928 109.424 25.272 109.792 24.344 110.176C23.416 110.56 22.616 110.816 21.944 110.944C21.528 109.76 20.872 108.736 19.976 107.872C19.08 107.008 18.04 106.576 16.856 106.576H11.432V116.704H14.888C16.968 116.704 18.008 115.536 18.008 113.2C19.448 113.2 20.744 113.536 21.896 114.208V123.136C21.384 123.456 20.792 123.712 20.12 123.904C19.448 124.064 18.76 124.144 18.056 124.144C18.056 122.928 17.768 122.016 17.192 121.408C16.616 120.8 15.864 120.496 14.936 120.496H11.432V131.776H17.24C18.584 131.776 19.752 131.216 20.744 130.096C21.736 128.944 22.36 127.536 22.616 125.872H27.752ZM39.9665 130.336C39.9665 131.104 40.0785 131.712 40.3025 132.16C40.5585 132.576 41.0065 132.896 41.6465 133.12C42.3185 133.312 43.2785 133.408 44.5265 133.408C44.5265 134.368 44.1425 135.232 43.3745 136H30.7505C30.0145 135.2 29.6465 134.336 29.6465 133.408C30.5745 133.408 31.2305 133.2 31.6145 132.784C32.0305 132.368 32.2385 131.696 32.2385 130.768V114.4H29.3105V111.424C30.3665 111.2 31.2625 110.8 31.9985 110.224C31.8385 109.488 31.7585 108.56 31.7585 107.44C31.7585 103.888 32.6705 101.28 34.4945 99.616C36.3185 97.92 38.8145 97.072 41.9825 97.072C43.9665 97.072 45.5185 97.536 46.6385 98.464C47.7585 99.392 48.3185 100.512 48.3185 101.824C48.3185 103.104 47.9825 104.144 47.3105 104.944C46.6705 105.744 45.7905 106.144 44.6705 106.144C43.6785 106.144 42.7985 105.856 42.0305 105.28C41.2625 104.672 40.8785 103.904 40.8785 102.976C40.8785 102.496 40.9585 102.048 41.1185 101.632C41.2785 101.184 41.5185 100.848 41.8385 100.624C41.6785 100.528 41.5345 100.448 41.4065 100.384C41.3105 100.32 41.1665 100.288 40.9745 100.288C40.4945 100.288 39.9985 100.512 39.4865 100.96C38.9745 101.408 38.5425 102.016 38.1905 102.784C37.8705 103.52 37.7105 104.336 37.7105 105.232C37.7105 106.864 37.9025 108.08 38.2865 108.88C38.6705 109.68 39.3745 110.08 40.3985 110.08H49.2785C49.1185 109.184 49.0385 108.192 49.0385 107.104C49.0385 105.12 49.4865 103.328 50.3825 101.728C51.2785 100.096 52.4945 98.832 54.0305 97.936C55.5985 97.008 57.3265 96.544 59.2145 96.544C61.2305 96.544 62.8145 96.992 63.9665 97.888C65.1505 98.784 65.7425 99.904 65.7425 101.248C65.7425 102.496 65.3905 103.536 64.6865 104.368C63.9825 105.2 63.0705 105.616 61.9505 105.616C60.9585 105.616 60.0625 105.344 59.2625 104.8C58.4945 104.256 58.1105 103.52 58.1105 102.592C58.1105 102.144 58.1905 101.712 58.3505 101.296C58.5105 100.848 58.7665 100.496 59.1185 100.24C58.7985 100.048 58.5105 99.952 58.2545 99.952C57.8065 99.952 57.3585 100.176 56.9105 100.624C56.4945 101.04 56.1425 101.616 55.8545 102.352C55.5665 103.088 55.4225 103.888 55.4225 104.752C55.4225 106.576 55.5505 107.92 55.8065 108.784C56.0625 109.648 56.6865 110.08 57.6785 110.08H63.1505C63.1505 111.04 63.1025 111.888 63.0065 112.624C62.9105 113.328 62.6865 113.92 62.3345 114.4H57.3905V130.336C57.3905 131.456 57.7425 132.256 58.4465 132.736C59.1505 133.184 60.4465 133.408 62.3345 133.408C62.3345 134.272 61.9505 135.136 61.1825 136H48.0305C47.2945 135.168 46.9265 134.304 46.9265 133.408C47.8865 133.408 48.5585 133.2 48.9425 132.784C49.3585 132.368 49.5665 131.696 49.5665 130.768V114.4H39.9665V130.336ZM77.6881 131.104C79.7041 131.104 81.5761 130.464 83.3041 129.184C83.5601 129.44 83.7841 129.824 83.9761 130.336C84.1681 130.848 84.2641 131.296 84.2641 131.68C84.2641 132.256 83.8801 132.928 83.1121 133.696C82.3441 134.432 81.2721 135.072 79.8961 135.616C78.5521 136.16 77.0321 136.432 75.3361 136.432C72.9681 136.432 70.8881 135.92 69.0961 134.896C67.3361 133.872 65.9761 132.384 65.0161 130.432C64.0561 128.48 63.5761 126.176 63.5761 123.52C63.5761 120.8 64.0881 118.416 65.1121 116.368C66.1681 114.32 67.6081 112.752 69.4321 111.664C71.2561 110.544 73.3201 109.984 75.6241 109.984C78.5361 109.984 80.8561 110.832 82.5841 112.528C84.3121 114.224 85.1761 116.576 85.1761 119.584C85.1761 120.992 84.9521 122.112 84.5041 122.944C84.0561 123.744 83.2561 124.144 82.1041 124.144H71.7361C71.9281 128.784 73.9121 131.104 77.6881 131.104ZM75.3361 113.296C74.3441 113.296 73.5121 113.856 72.8401 114.976C72.1681 116.064 71.8001 117.904 71.7361 120.496H76.5841C77.0961 120.496 77.4321 120.32 77.5921 119.968C77.7521 119.616 77.8321 119.072 77.8321 118.336C77.8321 116.448 77.6081 115.136 77.1601 114.4C76.7121 113.664 76.1041 113.296 75.3361 113.296ZM106.678 129.904C106.934 130.192 107.142 130.576 107.302 131.056C107.494 131.536 107.59 131.952 107.59 132.304C107.59 133.008 107.222 133.696 106.486 134.368C105.75 135.04 104.758 135.6 103.51 136.048C102.294 136.496 100.966 136.72 99.5259 136.72C97.1899 136.72 95.1259 136.192 93.3339 135.136C91.5419 134.08 90.1499 132.56 89.1579 130.576C88.1659 128.592 87.6699 126.24 87.6699 123.52C87.6699 120.736 88.1979 118.32 89.2539 116.272C90.3419 114.224 91.8299 112.656 93.7179 111.568C95.6379 110.48 97.7819 109.936 100.15 109.936C102.518 109.936 104.358 110.512 105.67 111.664C107.014 112.784 107.686 114.224 107.686 115.984C107.686 117.488 107.302 118.672 106.534 119.536C105.766 120.368 104.774 120.784 103.558 120.784C102.566 120.784 101.734 120.416 101.062 119.68C100.39 118.944 100.054 118.048 100.054 116.992C100.054 116.288 100.182 115.696 100.438 115.216C100.694 114.736 101.046 114.304 101.494 113.92C100.982 113.632 100.518 113.488 100.102 113.488C99.0139 113.488 98.0539 114.144 97.2219 115.456C96.3899 116.736 95.9739 118.864 95.9739 121.84C95.9739 125.232 96.4699 127.68 97.4619 129.184C98.4539 130.656 99.9099 131.392 101.83 131.392C102.726 131.392 103.606 131.264 104.47 131.008C105.366 130.752 106.102 130.384 106.678 129.904ZM119.682 114.832V128.368C119.682 129.328 119.874 130 120.258 130.384C120.642 130.736 121.186 130.912 121.89 130.912C122.498 130.912 123.138 130.752 123.81 130.432C124.482 130.112 125.01 129.712 125.394 129.232C125.714 129.488 125.938 129.872 126.066 130.384C126.226 130.896 126.306 131.36 126.306 131.776C126.306 132.512 126.05 133.232 125.538 133.936C125.026 134.64 124.258 135.216 123.234 135.664C122.21 136.112 120.978 136.336 119.538 136.336C117.298 136.336 115.49 135.696 114.114 134.416C112.77 133.136 112.098 131.008 112.098 128.032V114.832H109.074V111.904C109.906 111.776 110.706 111.248 111.474 110.32C112.274 109.36 112.946 108.176 113.49 106.768C114.066 105.328 114.434 103.904 114.594 102.496C115.17 102.4 115.698 102.352 116.178 102.352C117.33 102.352 118.178 102.688 118.722 103.36C119.298 104 119.586 104.72 119.586 105.52V110.56H125.154C125.154 111.52 125.106 112.352 125.01 113.056C124.914 113.728 124.706 114.32 124.386 114.832H119.682Z" fill="#B8860B"/>
<path d="M305.235 136.528C304.499 136.528 303.603 136.48 302.547 136.384C299.123 136.128 296.115 136 293.523 136C292.819 135.104 292.467 134.08 292.467 132.928C293.523 132.928 294.275 132.752 294.723 132.4C295.203 132.016 295.443 131.376 295.443 130.48V107.92C295.443 107.056 295.203 106.448 294.723 106.096C294.275 105.712 293.523 105.52 292.467 105.52C292.467 104.304 292.819 103.296 293.523 102.496C295.955 102.496 298.147 102.432 300.099 102.304C302.051 102.176 303.203 102.096 303.555 102.064C304.643 101.968 305.427 101.92 305.907 101.92C309.459 101.92 312.435 102.656 314.835 104.128C317.267 105.6 319.059 107.6 320.211 110.128C321.395 112.624 321.987 115.424 321.987 118.528C321.987 121.952 321.379 125.024 320.163 127.744C318.979 130.432 317.139 132.576 314.643 134.176C312.147 135.744 309.011 136.528 305.235 136.528ZM304.851 132.544C307.603 132.544 309.715 131.504 311.187 129.424C312.691 127.312 313.443 123.92 313.443 119.248C313.443 114.736 312.643 111.36 311.043 109.12C309.475 106.88 307.283 105.76 304.467 105.76C303.923 105.76 303.539 105.792 303.315 105.856V132.448C303.635 132.512 304.147 132.544 304.851 132.544ZM339.313 136.624C336.241 136.624 333.585 135.92 331.345 134.512C329.137 133.072 327.441 131.04 326.257 128.416C325.073 125.792 324.481 122.752 324.481 119.296C324.481 115.68 325.089 112.576 326.305 109.984C327.521 107.36 329.233 105.36 331.441 103.984C333.681 102.608 336.289 101.92 339.265 101.92C342.337 101.92 344.993 102.64 347.233 104.08C349.473 105.52 351.185 107.552 352.369 110.176C353.585 112.768 354.193 115.808 354.193 119.296C354.193 122.88 353.569 125.984 352.321 128.608C351.105 131.2 349.377 133.184 347.137 134.56C344.897 135.936 342.289 136.624 339.313 136.624ZM339.313 133.12C341.073 133.12 342.497 132.112 343.585 130.096C344.705 128.08 345.265 124.416 345.265 119.104C345.265 114.048 344.753 110.512 343.729 108.496C342.705 106.48 341.265 105.472 339.409 105.472C337.649 105.472 336.209 106.48 335.089 108.496C334.001 110.512 333.457 114.16 333.457 119.44C333.457 124.496 333.969 128.048 334.993 130.096C336.049 132.112 337.489 133.12 339.313 133.12ZM371.423 136.624C368.351 136.624 365.695 135.92 363.455 134.512C361.247 133.072 359.551 131.04 358.367 128.416C357.183 125.792 356.591 122.752 356.591 119.296C356.591 115.68 357.199 112.576 358.415 109.984C359.631 107.36 361.343 105.36 363.551 103.984C365.791 102.608 368.399 101.92 371.375 101.92C374.447 101.92 377.103 102.64 379.343 104.08C381.583 105.52 383.295 107.552 384.479 110.176C385.695 112.768 386.303 115.808 386.303 119.296C386.303 122.88 385.679 125.984 384.431 128.608C383.215 131.2 381.487 133.184 379.247 134.56C377.007 135.936 374.399 136.624 371.423 136.624ZM371.423 133.12C373.183 133.12 374.607 132.112 375.695 130.096C376.815 128.08 377.375 124.416 377.375 119.104C377.375 114.048 376.863 110.512 375.839 108.496C374.815 106.48 373.375 105.472 371.519 105.472C369.759 105.472 368.319 106.48 367.199 108.496C366.111 110.512 365.567 114.16 365.567 119.44C365.567 124.496 366.079 128.048 367.103 130.096C368.159 132.112 369.599 133.12 371.423 133.12ZM415.58 128.608C415.932 129.824 416.38 130.736 416.924 131.344C417.5 131.92 418.236 132.272 419.132 132.4V134.8C418.396 135.824 417.004 136.336 414.956 136.336C413.036 136.336 411.516 136.016 410.396 135.376C409.308 134.736 408.492 133.904 407.948 132.88C407.436 131.824 406.956 130.448 406.508 128.752C406.028 126.864 405.516 125.296 404.972 124.048C404.428 122.8 403.724 122.032 402.86 121.744H399.692V130.528C399.692 131.36 399.996 131.984 400.604 132.4C401.212 132.784 402.012 132.976 403.004 132.976C403.004 134.128 402.652 135.136 401.948 136H389.9C389.164 135.104 388.796 134.096 388.796 132.976C389.884 132.976 390.668 132.784 391.148 132.4C391.66 132.016 391.916 131.392 391.916 130.528V107.968C391.916 107.104 391.66 106.48 391.148 106.096C390.636 105.712 389.836 105.52 388.748 105.52C388.748 104.24 389.068 103.232 389.708 102.496C391.82 102.496 394.188 102.432 396.812 102.304C399.116 102.176 400.924 102.112 402.236 102.112C411.388 102.112 415.964 105.2 415.964 111.376C415.964 116.08 413.468 118.944 408.476 119.968C409.916 120.384 411.292 121.392 412.604 122.992C413.916 124.56 414.908 126.432 415.58 128.608ZM401.804 118.432C403.724 118.432 405.228 117.84 406.316 116.656C407.404 115.44 407.948 113.84 407.948 111.856C407.948 109.808 407.468 108.288 406.508 107.296C405.58 106.272 404.092 105.76 402.044 105.76C400.956 105.76 400.172 105.824 399.692 105.952V118.336C400.268 118.4 400.972 118.432 401.804 118.432ZM425.483 124.192C425.995 126.88 427.003 129.008 428.507 130.576C430.011 132.112 431.787 132.88 433.835 132.88C435.179 132.88 436.171 132.496 436.811 131.728C437.451 130.96 437.771 130.112 437.771 129.184C437.771 127.808 437.163 126.656 435.947 125.728C434.763 124.768 433.051 123.744 430.811 122.656C427.803 121.184 425.531 119.552 423.995 117.76C422.459 115.968 421.691 113.792 421.691 111.232C421.691 109.344 422.155 107.712 423.083 106.336C424.043 104.928 425.339 103.856 426.971 103.12C428.603 102.384 430.427 102.016 432.443 102.016C433.499 102.016 434.635 102.128 435.851 102.352C437.099 102.544 438.091 102.848 438.827 103.264L442.907 102.016C443.483 103.008 443.851 104.384 444.011 106.144C444.171 107.872 444.251 109.872 444.251 112.144V112.864H440.267C439.115 108.192 436.859 105.856 433.499 105.856C432.219 105.856 431.259 106.224 430.619 106.96C429.979 107.664 429.659 108.608 429.659 109.792C429.659 110.752 429.915 111.584 430.427 112.288C430.939 112.992 431.579 113.6 432.347 114.112C433.147 114.592 434.203 115.152 435.515 115.792C437.531 116.784 439.211 117.712 440.555 118.576C441.931 119.44 443.115 120.592 444.107 122.032C445.099 123.44 445.595 125.12 445.595 127.072C445.595 128.864 445.147 130.496 444.251 131.968C443.355 133.408 442.043 134.56 440.315 135.424C438.619 136.288 436.635 136.72 434.363 136.72C431.771 136.72 429.195 136.176 426.635 135.088L422.939 136.72C422.331 135.504 421.803 133.616 421.355 131.056C420.907 128.464 420.683 126.176 420.683 124.192H425.483Z" fill="black"/>
</g>
<rect x="128" width="164" height="241" fill="#0D0909"/>
<path d="M269.633 113.004C269.633 130.629 266.328 145.194 259.719 156.699C250.784 172.366 236.525 180.199 216.941 180.199H176V176.527C181.753 175.793 185.608 174.385 187.566 172.305C189.892 169.612 191.055 164.716 191.055 157.617V67.8398C191.055 60.3737 189.892 55.3555 187.566 52.7852C185.853 50.8268 181.997 49.4805 176 48.7461V45.0742H215.105C232.486 45.0742 245.949 50.8268 255.496 62.332C264.921 73.7148 269.633 90.6055 269.633 113.004ZM256.965 113.188C256.965 92.625 252.559 76.7135 243.746 65.4531C236.28 56.0286 224.469 51.3164 208.312 51.3164C204.763 51.3164 202.438 52.2344 201.336 54.0703C200.724 55.1719 200.418 57.4362 200.418 60.8633V164.227C200.418 168.755 201.336 171.632 203.172 172.855C204.518 173.59 206.783 173.957 209.965 173.957C241.298 173.957 256.965 153.701 256.965 113.188Z" fill="#B8860B"/>
<path d="M194.583 108.438C195.983 111.441 194.684 115.011 191.681 116.411L162.679 129.935C161.177 130.635 159.392 129.986 158.692 128.484L157.002 124.859C155.835 122.356 156.917 119.381 159.42 118.214L192.047 103L194.583 108.438Z" fill="#B8860B"/>
<rect x="167" y="146" width="23" height="37" fill="#0D0909"/>
<path d="M195.918 178.876L157.853 196.626C156.352 197.326 154.567 196.676 153.867 195.175L152.176 191.549C151.009 189.047 152.092 186.072 154.595 184.905L190.847 168L195.918 178.876Z" fill="#B8860B"/>
<rect x="170" y="39" width="20" height="27" fill="#0D0909"/>
<path d="M194.983 55.0738C195.232 55.577 195.018 56.1866 194.509 56.4239L152.841 75.8543C151.339 76.5545 149.554 75.9049 148.854 74.4032L147.155 70.761C145.991 68.265 147.065 65.2976 149.557 64.1244L190.028 45.0672L194.983 55.0738Z" fill="#B8860B"/>
<path d="M190.052 47.0505C190.027 46.086 190.015 45.6037 190.31 45.3019C190.604 45 191.086 45 192.051 45H235.811C236.917 45 237.471 45 237.919 45.1443C238.839 45.4403 239.56 46.1611 239.856 47.0809C240 47.5291 240 48.0825 240 49.1894V49.1894C240 51.0284 240 51.9478 239.761 52.6934C239.269 54.2231 238.073 55.4236 236.545 55.9201C235.8 56.1621 234.881 56.1653 233.042 56.1717L190.286 56.3208L190.052 47.0505Z" fill="#B8860B"/>
<path d="M193.068 171.066C193.036 170.095 193.02 169.609 193.315 169.305C193.61 169 194.095 169 195.067 169H236.041C237.675 169 239 170.325 239 171.959V171.959C239 174.678 236.8 176.883 234.082 176.891L193.263 177L193.068 171.066Z" fill="#B8860B"/>
<path d="M262.795 78.1343C261.557 79.1838 259.022 78.608 255.709 76.525C252.397 74.4419 248.558 71.0097 244.981 66.9327C241.405 62.8557 238.361 58.4431 236.475 54.6004C234.588 50.7578 234.003 47.7766 234.839 46.2687C235.674 44.7607 238 44.5 240.967 46.4913C244 48.5 247.841 51.2393 251.511 55.1468C255.182 59.0542 257.765 63.9717 260 68C261.793 72.4959 263.5 75.5 264 77.5L254.562 67.5905C254.723 66.8489 254.338 65.5808 253.487 64.0466C252.636 62.5123 251.383 60.8283 249.984 59.3401C248.586 57.8518 247.149 56.6723 245.969 56.0435C244.788 55.4147 243.953 55.3844 243.634 55.9587C243.316 56.533 243.539 57.6685 244.257 59.132C244.976 60.5955 246.135 62.2762 247.497 63.829C248.86 65.3818 250.322 66.689 251.583 67.4823C252.845 68.2757 253.81 68.495 254.282 68.0953L262.795 78.1343Z" fill="#B8860B"/>
<defs>
<filter id="filter0_d" x="0.248001" y="96.544" width="445.347" height="40.224" filterUnits="userSpaceOnUse" color-interpolation-filters="sRGB">
<feFlood flood-opacity="0" result="BackgroundImageFix"/>
<feColorMatrix in="SourceAlpha" type="matrix" values="0 0 0 0 0 0 0 0 0 0 0 0 0 0 0 0 0 0 127 0" result="hardAlpha"/>
<feOffset/>
<feComposite in2="hardAlpha" operator="out"/>
<feColorMatrix type="matrix" values="0 0 0 0 0 0 0 0 0 0 0 0 0 0 0 0 0 0 0.25 0"/>
<feBlend mode="normal" in2="BackgroundImageFix" result="effect1_dropShadow"/>
<feBlend mode="normal" in="SourceGraphic" in2="effect1_dropShadow" result="shape"/>
</filter>
</defs>
</svg>
